# Blender 5.0.1
# www.blender.org
mtllib crystaltest.mtl
o Cube
v 0.658706 -3.300471 0.083884
v 0.658706 -3.899421 0.083884
v 0.658706 -3.420471 0.083884
v 0.658706 -3.779421 0.083884
v -2.471102 -3.899421 -4.361963
v -2.518089 -3.827230 -4.256464
v -2.362587 -3.828336 -4.398327
v -1.927776 -3.364757 -3.900038
v -2.089891 -3.366396 -3.747674
v -1.900340 -3.300471 -3.689279
v 4.338411 -3.820871 -4.693578
v 4.483033 -3.822537 -4.553770
v 4.289569 -3.899421 -4.500475
v 4.902079 -3.300471 -5.087739
v 4.940094 -3.376818 -5.005698
v 4.773154 -3.384510 -5.115287
v -2.226461 -3.808676 15.237227
v -2.278975 -3.812906 15.234140
v -2.116351 -3.899421 14.956218
v -2.612151 -3.300471 15.031456
v -2.637402 -3.386987 15.269535
v -2.565388 -3.392932 15.274367
v 4.883759 -3.786160 4.422215
v 4.792032 -3.786119 4.594992
v 4.771539 -3.899421 4.449304
v 4.785637 -3.300471 4.452123
v 4.802268 -3.413773 4.609021
v 4.901935 -3.412941 4.422930
v 4.779344 -3.831228 -0.323034
v 4.576333 -3.899421 -0.302987
v 5.390151 -3.369132 -0.383352
v 5.366819 -3.300471 -0.381048
v -3.721128 -3.812905 0.630251
v -3.708848 -3.811113 0.404715
v -3.543921 -3.899421 0.498899
v -4.031408 -3.392699 0.444618
v -4.079555 -3.386987 0.665646
v -4.042065 -3.300471 0.548091
v 0.069754 -3.786119 -4.727182
v 0.295757 -3.786119 -4.734872
v 0.193688 -3.899421 -4.625096
v 0.295261 -3.413773 -4.749452
v 0.079017 -3.413773 -4.692198
v 0.193926 -3.300471 -4.622692
v 1.428614 -3.825914 6.775284
v 1.268591 -3.802705 7.016285
v 1.301502 -3.899421 6.593129
v 1.311364 -3.392700 7.536453
v 1.479957 -3.377778 7.338661
v 1.377540 -3.300471 7.363122
v -2.310276 -3.755448 -4.194307
v -2.185951 -3.700682 -4.218575
v -2.349897 -3.704028 -4.074224
v -1.868052 -3.470950 -3.843392
v -1.835021 -3.426194 -3.626029
v -2.031667 -3.472227 -3.691031
v 4.308434 -3.687715 -4.624186
v 4.251773 -3.771290 -4.435771
v 4.451858 -3.704109 -4.485770
v 4.606190 -3.486638 -4.688514
v 4.445660 -3.573876 -4.723242
v 4.637234 -3.555826 -4.622650
v -2.281530 -3.617227 15.097997
v -2.179358 -3.711067 14.831264
v -2.335928 -3.615826 15.087521
v -2.567284 -3.137621 14.742019
v -2.541746 -3.222508 15.025401
v -2.602973 -3.220954 15.012934
v 4.780102 -3.673584 4.363646
v 4.704211 -3.779202 4.411902
v 4.685926 -3.671713 4.538970
v 4.579750 -3.380802 4.340500
v 4.731223 -3.481188 4.329613
v 4.633163 -3.483733 4.517683
v 4.522169 -3.778655 -0.302191
v 4.730497 -3.718398 -0.326074
v 5.081060 -3.425158 -0.375568
v 5.098857 -3.485942 -0.374711
v -3.628209 -3.697659 0.654878
v -3.430466 -3.763880 0.516263
v -3.614949 -3.694852 0.426913
v -3.786573 -3.552121 0.457007
v -3.822145 -3.479206 0.573068
v -3.841196 -3.543422 0.685928
v 0.093839 -3.579895 -4.554292
v 0.221550 -3.688686 -4.423117
v 0.320088 -3.579010 -4.564882
v 0.319738 -3.573871 -4.570815
v 0.213825 -3.462504 -4.478476
v 0.101823 -3.571207 -4.521822
v 1.360285 -3.683589 6.737327
v 1.237419 -3.721992 6.528306
v 1.142740 -3.645137 7.165482
v 1.122699 -3.558038 7.394298
v 1.209369 -3.496644 7.246651
v 1.339777 -3.537481 7.171093
vn -0.5640 0.5426 -0.6225
vn -0.2473 0.9353 -0.2531
vn 0.2797 -0.9119 -0.3002
vn 0.4867 -0.5155 -0.7052
vn 0.0568 -0.9434 0.3269
vn 0.0541 0.9366 0.3461
vn 0.7022 -0.6065 0.3729
vn 0.6917 0.6183 0.3732
vn -0.4575 -0.8886 -0.0320
vn -0.9683 0.1285 -0.2142
vn -0.0248 -0.6840 -0.7290
vn -0.1948 0.6488 -0.7356
vn 0.2140 -0.9485 0.2334
vn 0.5845 0.6023 0.5437
vn 0.4309 -0.7693 0.4716
vn 0.1696 -0.9700 0.1740
vn -0.2223 0.9143 0.3387
vn -0.4372 0.5094 0.7412
vn 0.0827 0.9496 -0.3024
vn 0.0347 -0.9565 -0.2896
vn -0.8123 0.3824 -0.4404
vn -0.5427 -0.7870 -0.2936
vn 0.3370 0.9410 0.0312
vn 0.9676 0.1113 0.2267
vn 0.0261 0.7818 0.6230
vn 0.1813 -0.5198 0.8348
vn -0.0846 0.9877 -0.1317
vn -0.5278 -0.6286 -0.5712
vn -0.0871 -0.6028 -0.7931
vn -0.3895 0.8202 -0.4190
vn -0.0726 0.6206 -0.7807
vn 0.3713 -0.8154 -0.4442
vn 0.3395 -0.9403 -0.0245
vn 0.7963 0.5980 0.0911
vn 0.8816 -0.0429 0.4701
vn 0.2524 -0.8852 0.3908
vn 0.6517 0.6815 0.3328
vn -0.0648 -0.1388 0.9882
vn -0.4138 -0.9094 0.0409
vn -0.5090 0.8255 -0.2440
vn 0.4975 -0.8674 -0.0116
vn 0.9342 0.3447 -0.0919
vn -0.6025 -0.7854 -0.1419
vn -0.8672 0.4905 0.0856
vn -0.7788 -0.6192 -0.0999
vn 0.0072 -0.8464 -0.5325
vn -0.1825 0.8698 -0.4584
vn 0.7420 -0.5949 0.3091
vn 0.4716 0.6825 0.5584
vn 0.6019 -0.6507 0.4630
vn -0.1452 0.0288 -0.9890
vn 0.0580 0.6884 0.7230
vn 0.2911 -0.9060 0.3072
vn 0.0341 -0.5453 0.8376
vn -0.3324 0.8233 0.4602
vn -0.2942 0.9555 0.0220
vn -0.6902 -0.7211 -0.0599
vn -0.8455 -0.2910 -0.4478
vn -0.2065 0.9194 -0.3348
vn -0.7022 -0.6380 -0.3161
vn 0.1930 -0.0537 -0.9797
vn 0.3791 0.9246 -0.0379
vn 0.4416 -0.8781 0.1840
vn -0.5025 0.8646 0.0083
vn -0.9476 -0.3005 0.1083
vn 0.4830 0.8667 0.1250
vn 0.8691 -0.4905 -0.0646
vn 0.6172 0.7826 0.0816
vn 0.0251 0.8576 0.5137
vn 0.1390 -0.8853 0.4438
vn -0.6493 0.7090 -0.2753
vn -0.3696 -0.8030 -0.4675
vn -0.4470 0.8349 -0.3212
vn 0.0566 -0.8920 0.4485
vn -0.1952 0.5991 -0.7765
vn -0.8977 0.3058 -0.3172
vn -0.0000 -1.0000 -0.0000
vn -0.0000 1.0000 -0.0000
vn 0.6318 -0.7733 -0.0534
vn -0.0341 -0.4603 -0.8871
vn -0.7599 -0.6457 0.0750
vn 0.9070 0.0425 0.4190
vn 0.5052 -0.5217 0.6875
vn 0.7995 -0.5997 0.0322
vn 0.1083 -0.8934 0.4359
vn 0.7647 -0.5886 0.2622
vn -0.0067 0.9999 0.0103
vn 0.0033 -1.0000 -0.0007
vn -0.5561 0.8300 0.0435
vn 0.0109 0.9999 0.0105
vn 0.0286 0.6427 0.7656
vn -0.0024 -0.9999 0.0119
vn 0.7537 0.6529 -0.0755
vn -0.0024 1.0000 -0.0051
vn -0.8483 -0.3710 -0.3777
vn -0.0225 -0.9996 0.0143
vn -0.4525 0.6520 -0.6084
vn 0.0058 1.0000 -0.0055
vn -0.8017 0.5970 -0.0303
vn 0.0131 -0.9999 -0.0027
vt 0.127934 0.745219
vt 0.130174 0.748180
vt 0.126138 0.740962
vt 0.604550 1.000000
vt 0.596277 0.996938
vt 0.625000 0.998769
vt 0.125000 0.501774
vt 0.126806 0.500000
vt 0.128212 0.503401
vt 0.619517 0.249438
vt 0.589123 0.252608
vt 0.589663 0.246174
vt 0.403238 0.748774
vt 0.392580 0.750475
vt 0.373679 0.746659
vt 0.619431 0.749889
vt 0.588889 0.750950
vt 0.582982 0.748943
vt 0.396392 0.498551
vt 0.409494 0.503302
vt 0.371451 0.503760
vt 0.619351 0.501702
vt 0.578998 0.503174
vt 0.579228 0.497845
vt 0.250475 0.750000
vt 0.247732 0.750000
vt 0.250000 0.746656
vt 0.583672 0.877323
vt 0.588889 0.874050
vt 0.616629 0.875561
vt 0.125000 0.630137
vt 0.125188 0.623320
vt 0.127935 0.625000
vt 0.578416 0.127297
vt 0.580878 0.119269
vt 0.625000 0.123705
vt 0.406942 0.621492
vt 0.415354 0.627149
vt 0.372181 0.625000
vt 0.586636 0.627070
vt 0.592298 0.621511
vt 0.627666 0.625000
vt 0.128028 0.745004
vt 0.126336 0.739747
vt 0.130679 0.747827
vt 0.599160 1.000000
vt 0.625000 0.998678
vt 0.585571 0.996748
vt 0.125000 0.501539
vt 0.128277 0.503446
vt 0.127041 0.500000
vt 0.611880 0.249564
vt 0.549147 0.245620
vt 0.558928 0.252660
vt 0.405145 0.748816
vt 0.373655 0.746572
vt 0.394695 0.750491
vt 0.617982 0.749906
vt 0.580619 0.749006
vt 0.584478 0.750984
vt 0.405405 0.498800
vt 0.371418 0.503780
vt 0.423228 0.503704
vt 0.608178 0.501869
vt 0.563944 0.497795
vt 0.562161 0.503209
vt 0.251009 0.750000
vt 0.250000 0.746555
vt 0.248954 0.750000
vt 0.562478 0.878351
vt 0.608284 0.875557
vt 0.568258 0.874274
vt 0.125000 0.630327
vt 0.128057 0.625000
vt 0.125000 0.623383
vt 0.504168 0.128273
vt 0.602850 0.124489
vt 0.520604 0.120556
vt 0.421198 0.621084
vt 0.372144 0.625000
vt 0.459271 0.628517
vt 0.562246 0.627694
vt 0.627782 0.625000
vt 0.576083 0.620931
vt 0.405481 0.996784
vt 0.418851 1.000000
vt 0.406628 0.253641
vt 0.409211 0.246143
vt 0.250000 0.503501
vt 0.249960 0.500000
vt 0.625000 0.375312
vt 0.596341 0.375000
vt 0.410182 0.877856
vt 0.411111 0.874050
vt 0.625000 0.001494
vt 0.595785 0.005977
vt 0.421338 0.128218
vt 0.419206 0.119594
vt 0.436562 1.000000
vt 0.416209 0.996607
vt 0.450108 0.245594
vt 0.434491 0.253613
vt 0.249906 0.500000
vt 0.250000 0.503548
vt 0.582080 0.375000
vt 0.625000 0.375298
vt 0.432530 0.874035
vt 0.422228 0.877798
vt 0.584737 0.006376
vt 0.625000 0.001773
vt 0.469952 0.119304
vt 0.495822 0.128278
vt 0.405547 0.005925
vt 0.250000 0.625000
vt 0.750000 0.625000
vt 0.872003 0.625000
vt 0.871288 0.744066
vt 0.750000 0.746852
vt 0.403464 0.375000
vt 0.750000 0.502957
vt 0.872006 0.502956
vt 0.416901 0.006409
vt 0.750000 0.746717
vt 0.871289 0.743952
vt 0.871919 0.625000
vt 0.417616 0.375000
vt 0.750000 0.503139
vt 0.871780 0.503171
s 0
usemtl Material.002
f 5/1/1 6/2/1 7/3/1
f 8/4/2 9/5/2 10/6/2
f 11/7/3 12/8/3 13/9/3
f 14/10/4 15/11/4 16/12/4
f 17/13/5 18/14/5 19/15/5
f 20/16/6 21/17/6 22/18/6
f 23/19/7 24/20/7 25/21/7
f 26/22/8 27/23/8 28/24/8
f 33/25/9 34/26/9 35/27/9
f 36/28/10 37/29/10 38/30/10
f 39/31/11 40/32/11 41/33/11
f 42/34/12 43/35/12 44/36/12
f 45/37/13 46/38/13 47/39/13
f 48/40/14 49/41/14 50/42/14
f 51/43/15 52/44/15 53/45/15
f 54/46/16 55/47/16 56/48/16
f 57/49/17 58/50/17 59/51/17
f 60/52/18 61/53/18 62/54/18
f 63/55/19 64/56/19 65/57/19
f 66/58/20 67/59/20 68/60/20
f 69/61/21 70/62/21 71/63/21
f 72/64/22 73/65/22 74/66/22
f 79/67/23 80/68/23 81/69/23
f 82/70/24 83/71/24 84/72/24
f 85/73/25 86/74/25 87/75/25
f 88/76/26 89/77/26 90/78/26
f 91/79/27 92/80/27 93/81/27
f 94/82/28 95/83/28 96/84/28
f 41/33/29 5/1/29 7/3/29 39/31/29
f 6/85/30 9/5/30 8/4/30 7/86/30
f 44/36/31 14/10/31 16/12/31 42/34/31
f 15/11/32 12/87/32 11/88/32 16/12/32
f 30/89/33 13/9/33 12/8/33 29/90/33
f 32/91/34 26/22/34 28/24/34 31/92/34
f 27/23/35 24/20/35 23/19/35 28/24/35
f 47/39/36 25/21/36 24/20/36 45/37/36
f 50/42/37 20/16/37 22/18/37 48/40/37
f 21/17/38 18/14/38 17/13/38 22/18/38
f 35/27/39 19/15/39 18/14/39 33/25/39
f 38/30/40 10/6/40 9/5/40 36/28/40
f 25/21/41 30/89/41 29/90/41 23/19/41
f 14/10/42 32/91/42 31/92/42 15/11/42
f 5/1/43 35/27/43 34/26/43 6/2/43
f 20/16/44 38/30/44 37/29/44 21/17/44
f 36/28/45 34/93/45 33/94/45 37/29/45
f 13/9/46 41/33/46 40/32/46 11/7/46
f 10/95/47 44/36/47 43/35/47 8/96/47
f 19/15/48 47/39/48 46/38/48 17/13/48
f 26/22/49 50/42/49 49/41/49 27/23/49
f 48/40/50 46/38/50 45/37/50 49/41/50
f 42/34/51 40/97/51 39/98/51 43/35/51
f 85/73/52 52/44/52 51/43/52 86/74/52
f 52/99/53 54/46/53 56/48/53 53/100/53
f 88/76/54 61/53/54 60/52/54 89/77/54
f 61/53/55 57/101/55 59/102/55 62/54/55
f 76/103/56 59/51/56 58/50/56 75/104/56
f 78/105/57 73/65/57 72/64/57 77/106/57
f 73/65/58 69/61/58 71/63/58 74/66/58
f 91/79/59 71/63/59 70/62/59 92/80/59
f 94/82/60 67/59/60 66/58/60 95/83/60
f 67/59/61 63/55/61 65/57/61 68/60/61
f 79/67/62 65/57/62 64/56/62 80/68/62
f 82/70/63 56/48/63 55/47/63 83/71/63
f 69/61/64 76/103/64 75/104/64 70/62/64
f 62/54/65 78/105/65 77/106/65 60/52/65
f 53/45/66 81/69/66 80/68/66 51/43/66
f 68/60/67 84/72/67 83/71/67 66/58/67
f 84/72/68 79/107/68 81/108/68 82/70/68
f 57/49/69 87/75/69 86/74/69 58/50/69
f 54/109/70 90/78/70 89/77/70 55/110/70
f 63/55/71 93/81/71 92/80/71 64/56/71
f 74/66/72 96/84/72 95/83/72 72/64/72
f 96/84/73 91/79/73 93/81/73 94/82/73
f 90/78/74 85/111/74 87/112/74 88/76/74
f 7/113/75 8/96/75 43/35/75 39/98/75
f 34/93/76 36/28/76 9/5/76 6/85/76
f 41/33/77 2/114/77 35/27/77 5/1/77
f 1/115/78 44/116/78 10/117/78 38/118/78
f 12/87/79 15/11/79 31/92/79 29/119/79
f 13/9/77 30/89/77 2/114/77 41/33/77
f 40/97/80 42/34/80 16/12/80 11/88/80
f 32/120/78 14/121/78 44/116/78 1/115/78
f 18/14/81 21/17/81 37/29/81 33/94/81
f 2/114/77 47/39/77 19/15/77 35/27/77
f 46/38/82 48/40/82 22/18/82 17/13/82
f 50/42/78 1/115/78 38/118/78 20/16/78
f 24/20/83 27/23/83 49/41/83 45/37/83
f 30/89/77 25/21/77 47/39/77 2/114/77
f 29/119/84 31/92/84 28/24/84 23/19/84
f 26/22/78 32/120/78 1/115/78 50/42/78
f 52/122/85 85/111/85 90/78/85 54/109/85
f 81/108/86 53/100/86 56/48/86 82/70/86
f 86/74/87 51/43/87 80/68/87 4/114/87
f 3/115/88 83/123/88 55/124/88 89/125/88
f 59/102/89 76/126/89 78/105/89 62/54/89
f 58/50/90 86/74/90 4/114/90 75/104/90
f 87/112/91 57/101/91 61/53/91 88/76/91
f 77/127/92 3/115/92 89/125/92 60/128/92
f 65/57/93 79/107/93 84/72/93 68/60/93
f 4/114/94 80/68/94 64/56/94 92/80/94
f 93/81/95 63/55/95 67/59/95 94/82/95
f 95/83/96 66/58/96 83/123/96 3/115/96
f 71/63/97 91/79/97 96/84/97 74/66/97
f 75/104/98 4/114/98 92/80/98 70/62/98
f 76/126/99 69/61/99 73/65/99 78/105/99
f 72/64/100 95/83/100 3/115/100 77/127/100
